<?xml version="1.0" standalone="no"?>
<!DOCTYPE svg PUBLIC "-//W3C//DTD SVG 20010904//EN"
 "http://www.w3.org/TR/2001/REC-SVG-20010904/DTD/svg10.dtd">
<svg version="1.0" xmlns="http://www.w3.org/2000/svg"
 width="750.000000pt" height="750.000000pt" viewBox="0 0 750.000000 750.000000"
 preserveAspectRatio="xMidYMid meet">
<metadata>
Created by potrace 1.11, written by Peter Selinger 2001-2013
</metadata>
<g transform="translate(0.000000,750.000000) scale(0.100000,-0.100000)"
fill="#000000" stroke="none">
<path d="M2 5591 c2 -1437 6 -1903 15 -1912 9 -9 9 -3 3 26 -8 37 -8 37 20 31
16 -3 32 -1 36 5 3 6 16 15 28 20 19 9 19 9 1 6 -22 -4 -51 18 -36 28 5 3 11
0 13 -6 2 -6 12 -10 23 -8 18 4 18 4 -1 23 -19 19 -19 20 4 14 15 -4 22 -2 22
7 0 8 4 16 9 19 5 4 7 -4 5 -16 -2 -13 -2 -18 2 -11 3 7 13 9 22 6 10 -3 13
-2 6 4 -6 4 -14 17 -17 27 -6 14 -4 16 5 9 8 -6 22 -7 33 -2 17 6 17 8 3 8
-22 1 -22 4 0 41 10 16 22 27 25 23 4 -3 7 -2 7 4 0 9 44 28 60 26 3 -1 11 6
19 14 11 12 11 14 -1 11 -7 -2 -15 1 -17 7 -4 16 16 17 32 1 8 -8 18 -12 21
-9 4 4 -4 13 -16 20 -22 13 -22 14 -1 8 17 -5 22 -1 25 17 2 19 9 23 33 21 28
-2 24 1 -14 13 -11 4 -9 9 8 20 12 9 29 13 38 9 14 -5 14 -3 -2 15 -10 11 -15
23 -11 27 4 5 12 0 18 -10 8 -14 13 -16 24 -6 8 6 14 18 14 26 0 12 3 13 14 4
11 -10 14 -9 12 1 -1 7 -5 19 -9 25 -5 8 -1 23 9 35 10 15 14 17 11 6 -4 -13
-2 -15 10 -11 11 4 14 2 9 -5 -4 -7 -14 -12 -23 -12 -13 0 -13 -2 -2 -16 8
-10 15 -12 17 -5 2 6 8 9 13 6 5 -4 6 1 3 9 -4 11 0 16 12 17 16 0 15 2 -3 9
-16 7 -21 14 -16 26 6 16 7 16 14 -2 5 -12 8 -14 8 -5 1 11 5 10 15 -5 15 -19
15 -19 12 1 -4 27 4 40 15 24 7 -11 9 -11 9 2 0 8 -5 20 -10 25 -7 7 -6 11 5
11 8 0 15 -5 15 -11 0 -6 5 -3 11 7 14 25 4 53 -14 38 -10 -8 -14 -7 -14 2 0
7 14 13 30 14 16 0 25 -2 19 -6 -6 -4 -7 -12 -3 -20 6 -9 10 -5 15 14 4 14 4
31 0 37 -4 7 -3 8 4 4 7 -4 12 -3 12 2 0 6 6 12 14 15 10 4 12 0 9 -14 -3 -10
-9 -16 -14 -13 -5 3 -9 0 -9 -5 0 -15 17 -14 27 2 12 19 13 40 1 54 -7 9 -3
12 20 10 28 -2 29 -3 15 -19 -9 -10 -13 -18 -9 -18 15 0 44 44 38 58 -4 11 -6
11 -14 0 -7 -9 -8 -8 -6 7 2 11 9 21 16 21 6 1 17 2 22 3 6 0 10 12 10 26 0
19 4 23 18 18 15 -6 15 -4 -2 15 -11 12 -14 22 -8 22 7 0 12 -5 12 -11 0 -8 4
-8 12 -1 7 5 23 8 36 6 25 -4 30 11 7 20 -8 3 -15 11 -15 18 0 9 3 8 10 -2 8
-12 10 -12 10 5 1 26 25 58 41 53 7 -2 21 4 31 14 10 10 25 18 33 18 10 0 15
10 15 29 0 39 16 48 42 24 12 -10 18 -12 14 -5 -10 18 4 38 15 21 5 -8 9 -9 9
-4 0 6 -5 17 -10 25 -7 11 -10 11 -10 2 0 -7 -5 -10 -10 -7 -6 4 -4 12 5 21 8
9 12 21 8 27 -3 7 -2 8 3 4 5 -5 9 -14 9 -19 0 -6 6 -13 13 -16 9 -3 10 3 2
23 -7 17 -7 24 0 20 6 -3 10 -1 10 4 0 6 7 11 16 11 9 0 14 -6 11 -12 -2 -7
-10 -12 -16 -10 -6 1 -11 -2 -11 -7 0 -5 11 -8 24 -7 24 1 26 9 11 51 -7 19
-7 19 7 1 8 -10 21 -16 29 -13 11 4 10 6 -3 6 -15 1 -15 4 -3 28 8 15 11 31 8
36 -3 6 -1 7 5 3 7 -4 12 -15 12 -25 0 -10 7 -18 15 -18 8 0 11 5 7 11 -3 6
-8 19 -9 30 -3 16 -1 17 13 5 15 -12 17 -12 12 1 -3 10 5 19 23 27 15 6 35 23
45 38 16 24 16 26 0 38 -16 12 -16 13 3 13 12 0 21 -7 22 -16 0 -10 2 -11 6
-2 2 6 9 9 15 6 6 -4 8 2 6 12 -3 13 -11 18 -26 17 -19 -2 -21 -1 -10 17 8 13
15 15 19 8 11 -17 48 -17 62 1 9 12 9 13 0 7 -8 -4 -13 -2 -13 5 0 8 -4 8 -15
-1 -27 -22 -16 0 13 25 32 29 48 31 60 9 8 -14 10 -12 14 9 3 15 1 24 -3 21
-19 -11 -8 14 16 36 14 13 25 28 25 34 0 6 -9 0 -20 -14 -10 -14 -22 -21 -27
-16 -4 5 -2 11 5 13 6 3 12 11 12 19 0 9 7 14 18 12 9 -1 23 1 30 6 11 7 12 4
3 -13 -7 -13 -8 -21 -2 -21 6 0 8 -8 4 -17 -7 -19 -5 -18 17 11 10 13 10 17 3
12 -19 -11 -16 4 4 26 10 11 13 19 8 18 -21 -5 -36 0 -30 10 3 5 11 7 18 5 7
-2 25 -6 41 -10 27 -6 28 -5 11 12 -14 14 -15 18 -4 22 22 7 29 24 16 40 -10
12 -9 14 7 8 15 -6 17 -4 13 13 -3 10 -2 19 2 18 21 -2 31 4 31 20 0 10 7 19
15 19 11 0 12 -4 4 -14 -8 -9 -8 -13 0 -13 6 0 11 4 11 9 0 6 11 22 25 37 14
15 25 22 25 15 0 -22 18 -10 29 19 5 17 13 30 16 30 3 0 3 -6 -1 -12 -5 -9 -3
-9 9 1 9 7 14 18 10 24 -4 6 0 8 10 4 10 -3 17 -2 17 3 0 5 -8 11 -17 13 -17
4 -17 5 0 6 9 0 17 6 17 12 0 5 5 7 11 3 6 -3 8 -15 6 -26 -4 -13 -1 -18 7
-15 8 3 13 -7 14 -31 2 -19 5 -39 8 -44 3 -4 -2 -5 -10 -2 -9 3 -16 2 -16 -4
0 -6 6 -12 12 -14 7 -3 11 -18 10 -37 -2 -22 1 -30 9 -26 8 5 7 0 -1 -15 -8
-15 -8 -20 -1 -16 7 5 11 -2 12 -16 1 -24 3 -48 13 -158 4 -36 11 -123 16
-193 5 -71 12 -132 15 -137 4 -7 8 -56 20 -255 3 -44 9 -152 15 -240 13 -205
17 -282 35 -605 8 -145 17 -292 20 -325 17 -197 36 -560 31 -580 -4 -14 -66
-85 -139 -157 -284 -285 -441 -606 -472 -969 -19 -222 59 -498 173 -616 156
-160 346 -174 536 -39 81 57 132 115 213 238 40 62 70 98 81 98 9 0 41 -9 70
-20 67 -26 96 -25 157 4 60 27 102 73 186 197 34 52 100 145 146 207 46 62
152 213 235 335 256 375 402 565 583 755 247 259 410 312 482 155 50 -108 46
-256 -11 -503 -73 -312 -64 -419 43 -517 45 -43 89 -56 181 -56 115 0 197 28
496 169 253 120 309 139 320 110 4 -10 -5 -63 -19 -119 -42 -162 -50 -220 -45
-325 9 -164 65 -268 188 -350 135 -90 367 -124 549 -81 57 14 197 79 231 107
l25 21 -65 29 c-90 41 -207 78 -325 103 -120 25 -216 68 -246 110 -37 52 -36
133 1 274 74 273 83 348 56 438 -21 69 -53 107 -115 135 -121 56 -241 30 -566
-121 -197 -91 -359 -157 -385 -157 -41 0 -42 38 -5 202 79 350 60 584 -62 766
-50 75 -108 124 -200 171 -44 22 -63 37 -63 50 0 14 60 60 212 161 379 254
604 428 802 620 244 238 379 441 436 656 54 207 30 417 -66 593 -119 219 -307
384 -615 544 -68 35 -167 81 -219 101 -52 21 -104 41 -115 46 -23 11 -240 74
-300 88 -22 6 -91 24 -153 41 -121 33 -395 94 -502 110 -224 35 -267 42 -280
48 -8 4 -24 8 -35 9 -29 5 -234 41 -270 49 -16 3 -43 8 -60 10 -59 9 -85 17
-85 26 0 5 -9 9 -19 9 -11 0 -22 6 -24 13 -4 10 -6 10 -6 0 -1 -18 -30 -16
-38 2 -3 9 -13 15 -22 14 -9 -1 -19 0 -23 1 -12 4 -27 7 -36 9 -11 1 -9 35 2
38 13 3 35 37 29 46 -3 5 5 3 18 -4 l24 -13 -25 -7 c-25 -7 -25 -7 3 -8 25 -1
27 2 22 20 -4 13 -3 19 2 16 6 -4 9 5 6 21 -3 23 -2 24 6 7 9 -19 10 -19 10
-1 1 16 3 17 18 5 15 -12 16 -12 10 4 -4 11 -1 17 9 17 8 0 17 7 20 15 4 8 10
12 15 9 5 -3 9 0 9 5 0 6 3 10 8 9 4 -2 7 2 7 7 0 6 -11 9 -23 8 -19 -2 -21 1
-13 11 6 7 7 17 3 22 -4 4 1 2 11 -5 15 -12 17 -12 11 4 -6 15 -4 16 13 6 17
-8 22 -7 27 4 3 8 13 15 22 15 8 0 14 6 11 13 -2 6 0 20 5 29 11 22 42 12 33
-11 -5 -12 -4 -13 6 -4 10 10 9 16 -2 29 -13 16 -12 17 10 11 23 -6 23 -5 8
11 -14 14 -22 14 -47 5 -39 -14 -39 -8 0 12 37 19 41 20 51 4 9 -15 47 -20 55
-7 3 5 2 8 -3 7 -21 -4 -43 2 -43 12 0 5 5 7 11 4 5 -4 15 7 22 24 9 24 18 31
37 31 20 0 22 -2 10 -10 -8 -5 -10 -10 -5 -10 6 0 16 4 23 9 10 6 6 11 -16 19
-17 6 -33 8 -36 5 -3 -4 -6 -1 -6 6 0 8 8 11 19 8 12 -3 22 1 25 10 9 23 7 26
-9 13 -13 -11 -14 -10 -10 2 4 10 18 15 40 15 18 -1 32 -4 30 -7 -2 -4 2 -7
10 -7 8 0 12 4 9 9 -3 4 0 8 5 8 6 0 11 4 11 9 0 4 -12 6 -26 3 -20 -4 -25 -1
-22 9 3 8 13 13 23 11 10 -2 14 1 10 7 -3 7 0 8 9 5 9 -3 16 -10 16 -16 0 -5
5 -6 11 -2 6 3 8 17 5 29 -3 13 -2 27 4 30 5 3 10 11 10 16 0 6 -4 7 -10 4 -6
-3 -7 1 -3 10 4 12 8 13 13 5 6 -9 9 -9 13 1 3 8 4 -3 2 -23 -2 -21 0 -38 5
-38 6 0 9 6 7 13 -1 6 3 11 8 10 6 -1 12 8 12 20 2 17 0 19 -7 7 -9 -13 -10
-13 -10 0 0 8 14 21 31 29 29 13 29 14 13 32 -10 11 -12 19 -6 19 7 0 12 -4
12 -10 0 -5 8 -10 17 -10 13 0 14 3 6 11 -8 8 -4 17 15 34 19 17 29 20 35 12
5 -7 6 -2 2 10 -5 19 -3 22 11 16 12 -4 15 -3 10 5 -8 13 14 16 29 4 6 -4 9
-5 8 -3 -2 2 5 10 15 18 9 8 11 12 5 8 -19 -9 -16 12 5 33 9 9 16 28 14 41 -2
15 0 21 7 16 6 -3 18 1 27 9 14 14 -161 16 -1825 16 l-1841 0 2 -1899z m3594
1814 c-3 -18 -23 -41 -31 -34 -4 5 22 49 30 49 2 0 2 -7 1 -15z m-106 -95 c0
-5 -5 -10 -11 -10 -5 0 -7 5 -4 10 3 6 8 10 11 10 2 0 4 -4 4 -10z m-420 -424
c0 -2 -7 -9 -15 -16 -13 -11 -14 -10 -9 4 5 14 24 23 24 12z m-86 -126 c-6 -6
-10 -2 -11 12 -2 16 1 18 10 9 7 -7 8 -14 1 -21z m-34 -12 c0 -4 -4 -8 -9 -8
-6 0 -12 4 -15 8 -3 5 1 9 9 9 8 0 15 -4 15 -9z m-195 -673 c39 -4 90 -10 115
-15 25 -5 79 -11 120 -14 127 -10 276 -25 342 -35 35 -6 88 -13 118 -16 93
-10 224 -26 245 -30 11 -3 38 -7 60 -10 534 -74 957 -197 1227 -358 164 -97
284 -215 342 -337 29 -60 31 -73 31 -170 -1 -91 -4 -113 -28 -170 -124 -293
-412 -565 -1047 -985 -384 -255 -872 -540 -943 -552 -34 -5 -41 -2 -101 55
-73 68 -148 102 -226 102 -147 0 -321 -82 -475 -224 -33 -31 -66 -56 -73 -56
-32 0 -33 18 -57 1090 -3 129 -10 368 -17 530 -6 162 -10 331 -10 375 1 181
11 572 16 600 3 17 8 53 11 81 7 68 21 113 40 134 13 15 32 17 128 14 62 -2
144 -6 182 -9z m-935 -503 c0 -12 -3 -12 -15 -2 -8 7 -15 13 -15 15 0 1 7 2
15 2 8 0 15 -7 15 -15z m-67 -52 c-7 -26 -25 -38 -21 -14 2 15 15 33 25 34 0
0 -1 -9 -4 -20z m-533 -540 c0 -5 -2 -10 -4 -10 -3 0 -8 5 -11 10 -3 6 -1 10
4 10 6 0 11 -4 11 -10z m48 -4 c-2 -1 -12 -8 -23 -16 -18 -14 -19 -13 -8 1 7
9 10 19 6 23 -4 4 1 4 10 0 10 -3 17 -7 15 -8z m-73 -37 c-4 -6 -10 -8 -13 -5
-3 3 -12 0 -21 -7 -14 -11 -14 -10 -2 6 14 18 47 24 36 6z m-735 -763 c0 -3
-4 -8 -10 -11 -5 -3 -10 -1 -10 4 0 6 5 11 10 11 6 0 10 -2 10 -4z m-120 -136
c0 -5 -5 -10 -11 -10 -5 0 -7 5 -4 10 3 6 8 10 11 10 2 0 4 -4 4 -10z m-73
-66 c-3 -3 -12 -4 -19 -1 -8 3 -5 6 6 6 11 1 17 -2 13 -5z m-102 -92 c-3 -3
-11 0 -18 7 -9 10 -8 11 6 5 10 -3 15 -9 12 -12z m-85 -126 c0 -3 -4 -8 -10
-11 -5 -3 -10 -1 -10 4 0 6 5 11 10 11 6 0 10 -2 10 -4z m3320 -810 c0 -37
-219 -304 -239 -291 -21 13 48 170 101 231 46 53 138 93 138 60z m-860 -126
c39 -20 117 -42 192 -54 66 -11 66 -9 -91 -346 -92 -197 -120 -244 -136 -228
-12 11 -17 58 -26 243 -5 105 -12 231 -15 282 -9 132 -1 142 76 103z m-466
-473 c13 -53 36 -357 37 -484 0 -206 -39 -356 -122 -469 -115 -157 -193 -120
-234 110 -35 201 -3 386 105 613 94 198 194 306 214 230z"/>
<path d="M3275 7071 c-3 -5 -1 -12 5 -16 5 -3 10 1 10 9 0 18 -6 21 -15 7z"/>
<path d="M3267 7039 c7 -7 15 -10 18 -7 3 3 -2 9 -12 12 -14 6 -15 5 -6 -5z"/>
<path d="M1822 5465 c0 -16 2 -22 5 -12 2 9 2 23 0 30 -3 6 -5 -1 -5 -18z"/>
<path d="M1617 5340 c5 -20 15 -25 26 -14 6 6 -16 34 -26 34 -3 0 -3 -9 0 -20z"/>
<path d="M1369 5103 c-13 -15 -12 -15 11 -3 34 17 36 20 18 20 -9 0 -22 -7
-29 -17z"/>
<path d="M1095 4770 c-3 -6 1 -7 9 -4 18 7 21 14 7 14 -6 0 -13 -4 -16 -10z"/>
<path d="M880 4615 c-9 -11 -9 -17 2 -29 13 -12 15 -10 15 15 0 34 -1 34 -17
14z"/>
<path d="M817 4509 c-4 -14 -10 -18 -19 -13 -10 6 -10 4 1 -9 15 -18 26 -23
16 -7 -3 6 3 14 15 18 19 7 20 10 7 20 -12 10 -16 9 -20 -9z"/>
<path d="M760 4450 c0 -5 7 -10 16 -10 8 0 12 5 9 10 -3 6 -10 10 -16 10 -5 0
-9 -4 -9 -10z"/>
<path d="M390 4080 c-9 -6 -10 -10 -3 -10 6 0 15 5 18 10 8 12 4 12 -15 0z"/>
<path d="M251 3936 c-10 -12 -8 -13 8 -9 12 3 21 9 21 14 0 14 -16 11 -29 -5z"/>
<path d="M205 3899 c-11 -17 -2 -18 19 -3 17 12 17 14 4 14 -9 0 -20 -5 -23
-11z"/>
<path d="M135 3780 c-3 -5 -2 -10 4 -10 5 0 13 5 16 10 3 6 2 10 -4 10 -5 0
-13 -4 -16 -10z"/>
<path d="M30 3714 c0 -8 5 -12 10 -9 6 3 10 10 10 16 0 5 -4 9 -10 9 -5 0 -10
-7 -10 -16z"/>
</g>
</svg>
