<?xml version="1.0" standalone="no"?>
<!DOCTYPE svg PUBLIC "-//W3C//DTD SVG 20010904//EN"
 "http://www.w3.org/TR/2001/REC-SVG-20010904/DTD/svg10.dtd">
<svg version="1.0" xmlns="http://www.w3.org/2000/svg"
 width="1080.000000pt" height="1080.000000pt" viewBox="0 0 1080.000000 1080.000000"
 preserveAspectRatio="xMidYMid meet">
<metadata>
Created by potrace 1.11, written by Peter Selinger 2001-2013
</metadata>
<g transform="translate(0.000000,1080.000000) scale(0.100000,-0.100000)"
fill="#000000" stroke="none">
<path d="M4980 10787 c-3 -3 -39 -7 -80 -10 -41 -4 -109 -11 -150 -17 -41 -6
-91 -13 -110 -15 -52 -6 -236 -37 -352 -60 -242 -48 -644 -170 -888 -269 -63
-26 -122 -49 -130 -51 -95 -25 -162 -53 -226 -96 -22 -14 -70 -43 -109 -64
-38 -21 -83 -46 -100 -55 -16 -10 -50 -29 -75 -42 -198 -110 -367 -218 -520
-331 -115 -85 -123 -91 -199 -151 -67 -52 -108 -87 -234 -196 -107 -93 -440
-436 -533 -550 -16 -19 -31 -37 -34 -40 -17 -17 -239 -314 -266 -355 -10 -16
-21 -32 -24 -35 -11 -9 -176 -264 -229 -355 -91 -154 -225 -423 -296 -595 -37
-91 -73 -178 -81 -195 -17 -39 -89 -258 -115 -348 -31 -107 -51 -180 -55 -201
-2 -10 -10 -42 -18 -70 -13 -43 -60 -256 -72 -321 -10 -59 -13 -80 -24 -152
-6 -43 -13 -94 -16 -113 -7 -44 -11 -81 -21 -195 -10 -114 -11 -905 0 -1005
13 -128 34 -289 53 -400 2 -14 9 -54 14 -90 6 -36 17 -90 25 -120 8 -30 16
-66 20 -80 4 -21 20 -88 40 -172 35 -151 148 -485 235 -698 109 -268 290 -617
436 -842 24 -37 44 -72 44 -77 0 -6 4 -11 9 -11 4 0 28 -30 53 -68 86 -127
203 -280 323 -418 162 -188 185 -213 375 -400 173 -170 187 -184 260 -243 25
-20 50 -41 55 -47 52 -59 449 -340 651 -461 203 -122 471 -258 684 -348 74
-31 149 -62 165 -70 43 -19 284 -99 390 -130 251 -74 489 -126 740 -164 39 -6
86 -13 105 -16 111 -16 235 -20 700 -20 463 0 560 3 704 21 43 6 265 42 304
49 12 3 34 7 50 10 78 16 89 18 206 46 273 63 664 195 931 314 427 191 856
457 1245 774 228 186 447 400 631 616 19 22 36 42 39 45 19 18 160 190 160
195 0 3 26 41 58 83 82 108 235 330 249 362 4 8 18 33 32 55 35 55 49 78 57
93 4 7 28 50 55 94 27 45 49 86 49 93 0 6 4 15 10 21 10 10 140 274 179 364
82 190 173 444 225 630 14 47 33 117 44 155 55 192 108 487 142 785 9 84 7
1096 -3 1175 -15 114 -35 258 -42 305 -3 14 -18 93 -36 175 -17 83 -32 159
-35 170 -9 49 -98 356 -139 480 -41 126 -141 373 -212 525 -20 41 -46 98 -59
125 -49 108 -250 465 -286 510 -5 6 -54 78 -111 160 -175 256 -328 446 -562
694 -93 98 -125 130 -215 211 -46 41 -98 89 -116 105 -18 17 -43 39 -56 49
-13 11 -48 40 -78 65 -173 146 -477 357 -698 486 -166 97 -447 236 -627 310
-49 20 -101 42 -115 47 -14 6 -34 14 -45 19 -62 25 -194 72 -295 104 -155 49
-174 55 -196 59 -10 3 -85 20 -165 40 -154 38 -271 63 -329 72 -19 3 -53 9
-75 14 -22 5 -71 12 -110 16 -38 4 -72 8 -75 9 -3 1 -36 5 -75 10 -38 4 -81
10 -95 12 -31 6 -934 15 -940 10z"/>
<path d="M3100 10345 c0 -8 4 -15 10 -15 5 0 7 7 4 15 -4 8 -8 15 -10 15 -2 0
-4 -7 -4 -15z"/>
</g>
</svg>
